<svg xmlns="http://www.w3.org/2000/svg" viewBox="0 0 40 40"><g id="_ÎÓÈ_1" data-name="—ÎÓÈ_1"><path class="cls-1" d="M31.76,0H8.24A8.24,8.24,0,0,0,0,8.24V31.76A8.24,8.24,0,0,0,8.24,40H31.76A8.24,8.24,0,0,0,40,31.76V8.24A8.24,8.24,0,0,0,31.76,0ZM13.86,31.09H9.18V16.17h4.68ZM11.52,14.23a2.71,2.71,0,1,1,2.71-2.71A2.71,2.71,0,0,1,11.52,14.23Zm19.67,17H26.51v-8.7a2.48,2.48,0,0,0-2.64-2.56,2.29,2.29,0,0,0-2.09,1.17,6.16,6.16,0,0,0-.42,3v7H16.68V16.2h4.47v2a2.46,2.46,0,0,1,.21-.29A5.46,5.46,0,0,1,26,15.79l.54,0c3,.33,4.68,2.3,4.68,5.63Z"/></g></svg>